# xmcd
# 
# Track frame offsets:
#     150
#     14627
#     34877
#     48442
# 
# Disc length: 861
# 
# Revision: 11
# Processed by: cddbd v1.5.2PL0 Copyright (c) Steve Scherf et al.
# Submitted via: fre:ac v1.0.31
# 
DISCID=2f035b04
DTITLE=John Denver - Definitive All-Time Greatest Hits Disc 2
DYEAR=2004
DGENRE=Rock/Pop
TTITLE0=Leaving, On A Jet Plane (Babe, I Hate To Go)
TTITLE1=The Weight
TTITLE2=Annie's Song (Acoustic Mix)
TTITLE3=Calypso (Acoustic Mix)
EXTD=
EXTT0=
EXTT1=
EXTT2=
EXTT3=
PLAYORDER=
